{"title":"Deliver Us From Evil - 2014 (No Cinavia) 1080p","uid":11331063,"size":4099600872,"categoryP":"video","categoryS":"hd___movies","magnet":"?xt=urn:btih:4a2251ea637b7e1e44d8b10df7d2ddcae45ffcde&amp;dn=Deliver+Us+From+Evil+-+2014+%28No+Cinavia%29+1080p&amp;tr=udp%3A%2F%2Ftracker.openbittorrent.com%3A80&amp;tr=udp%3A%2F%2Fopen.demonii.com%3A1337&amp;tr=udp%3A%2F%2Ftracker.coppersurfer.tk%3A6969&amp;tr=udp%3A%2F%2Fexodus.desync.com%3A6969","seeders":5,"leechers":0,"uploader":"AlienMethod","files":6,"time":1414679599,"description":"MP4x264\nCinavia Removed/CinExHD\n2-Channel AAC@192kbps (audio 1)\n6-Channel AC3@448kbps (audio 2)\n\nNew York police officer Ralph Sarchie investigates a series of crimes. He joins forces with an unconventional priest, schooled in the rites of exorcism, to combat the possessions that are terrorizing their city.\n\n\n\nVideo\nID : 1\nFormat : AVC\nFormat/Info : Advanced Video Codec\nFormat profile : &lt;a class=&quot;__cf_email__&quot; href=&quot;/cdn-cgi/l/email-protection&quot; data-cfemail=&quot;fbb3929c93bbb7cfd5ca&quot;&gt;[email&amp;#160;protected]&lt;/a&gt;&lt;script cf-hash='f9e31' type=&quot;text/javascript&quot;&gt;\n/* &lt;![CDATA[ */!function(){try{var t=&quot;currentScript&quot;in document?document.currentScript:function(){for(var t=document.getElementsByTagName(&quot;script&quot;),e=t.length;e--;)if(t[e].getAttribute(&quot;cf-hash&quot;))return t[e]}();if(t&amp;&amp;t.previousSibling){var e,r,n,i,c=t.previousSibling,a=c.getAttribute(&quot;data-cfemail&quot;);if(a){for(e=&quot;&quot;,r=parseInt(a.substr(0,2),16),n=2;a.length-n;n+=2)i=parseInt(a.substr(n,2),16)^r,e+=String.fromCharCode(i);e=document.createTextNode(e),c.parentNode.replaceChild(e,c)}}}catch(u){}}();/* ]]&gt; */&lt;/script&gt;\nFormat settings, CABAC : Yes\nFormat settings, ReFrames : 5 frames\nCodec ID : avc1\nCodec ID/Info : Advanced Video Coding\nDuration : 1h 58mn\nBit rate : 3 750 Kbps\nMaximum bit rate : 35.0 Mbps\nWidth : 1 920 pixels\nHeight : 800 pixels\nDisplay aspect ratio : 2.40:1\nFrame rate mode : Constant\nFrame rate : 23.976 fps\nColor space : YUV\nChroma subsampling : 4:2:0\nBit depth : 8 bits\nScan type : Progressive\nBits/(Pixel*Frame) : 0.102\nStream size : 3.10 GiB (81%)\nTitle : Deliver Us From Evil (CinEx)_track1_und.h264\nWriting library : x264 core 142 r2431 ac76440\nEncoded date : UTC 2014-10-30 03:39:42\nTagged date : UTC 2014-10-30 03:40:01\n\nAudio #1\nID : 2\nFormat : AAC\nFormat/Info : Advanced Audio Codec\nFormat profile : LC\nCodec ID : 40\nDuration : 1h 58mn\nBit rate mode : Variable\nBit rate : 222 Kbps\nMaximum bit rate : 259 Kbps\nChannel(s) : 2 channels\nChannel positions : Front: L R\nSampling rate : 48.0 KHz\nCompression mode : Lossy\nStream size : 188 MiB (5%)\nTitle : Deliver Us From Evil (CinEx)AAC.m4a\nEncoded date : UTC 2014-10-30 03:39:56\nTagged date : UTC 2014-10-30 03:40:01\n\nAudio #2\nID : 3\nFormat : AC-3\nFormat/Info : Audio Coding 3\nMode extension : CM (complete main)\nFormat settings, Endianness : Big\nCodec ID : ac-3\nDuration : 1h 58mn\nBit rate mode : Constant\nBit rate : 640 Kbps\nChannel(s) : 6 channels\nChannel positions : Front: L C R, Side: L R, LFE\nSampling rate : 48.0 KHz\nBit depth : 16 bits\nCompression mode : Lossy\nStream size : 542 MiB (14%)\nTitle : Deliver Us From Evil (CinEx)AC3.ac3\nEncoded date : UTC 2014-10-30 03:39:57\nTagged date : UTC 2014-10-30 03:40:01\n\nm/ AM m/","torrent":{"xt":"urn:btih:4a2251ea637b7e1e44d8b10df7d2ddcae45ffcde","amp;dn":"Deliver+Us+From+Evil+-+2014+%28No+Cinavia%29+1080p","amp;tr":["udp%3A%2F%2Ftracker.openbittorrent.com%3A80","udp%3A%2F%2Fopen.demonii.com%3A1337","udp%3A%2F%2Ftracker.coppersurfer.tk%3A6969","udp%3A%2F%2Fexodus.desync.com%3A6969"],"infoHash":"4a2251ea637b7e1e44d8b10df7d2ddcae45ffcde","infoHashBuffer":{"type":"Buffer","data":[74,34,81,234,99,123,126,30,68,216,177,13,247,210,221,202,228,95,252,222]},"announce":[],"urlList":[]}}